<svg xmlns="http://www.w3.org/2000/svg" version="1.1" xmlns:xlink="http://www.w3.org/1999/xlink" xmlns:svgjs="http://svgjs.dev/svgjs" width="100%" height="100%" viewBox="0 0 1000 600"><rect width="1000" height="600" x="0" y="0" fill="#640d5f"/><g><rect width="333.3333333333333" height="333.3333333333333" rx="13.333333333333334" ry="13.333333333333334" y="281.98150595089794" fill="#a02334" transform="matrix(0.4812147665262497,0,0,0.4812147665262497,0,84.1038722004651)" x="259.75927734375"/><path d="M312.8396445751551 382.2196151723734L298.2860735871985 382.2196151723734L298.2860735871985 373.64818686044805L349.2682149008379 373.64818686044805L391.91702313343876 515.0767540072166L402.63130852334547 515.0767540072166L402.63130852334547 523.6481823191418L347.36345305374334 523.6481823191418L347.36345305374334 515.0767540072166L359.77416696371864 515.0767540072166L351.857500536732 488.7077071865017L293.55393087332305 488.7077071865017L285.8455977733624 515.0767540072166L298.2860735871985 515.0767540072166L298.2860735871985 523.6481823191418L262.06583658854163 523.6481823191418L262.06583658854163 515.0767540072166L272.78012197844834 515.0767540072166L312.8396445751551 382.2196151723734ZM348.85154824678597 479.0648503355856L322.48250142607117 391.44580536923746L296.5598831632691 479.0648503355856L348.85154824678597 479.0648503355856ZM427.2741649201309 382.2196151723734L412.92892725920024 382.2196151723734L412.92892725920024 373.64818686044805L460.2801163018157 373.64818686044805L499.2682103595318 502.01127821230256L536.1432092431273 373.64818686044805L584.7741601517595 373.64818686044805L584.7741601517595 382.2196151723734L570.2205891638029 382.2196151723734L577.9289222637635 515.0767540072166L590.7860647316515 515.0767540072166L590.7860647316515 523.6481823191418L533.3455902802073 523.6481823191418L533.3455902802073 515.0767540072166L545.5777327670174 515.0767540072166L538.9110663021866 409.0053286471401L505.9348768243626 523.6481823191418L473.5539254237557 523.6481823191418L438.64321219497634 409.2136619741661L432.6313076150842 515.0767540072166L445.07178342892036 515.0767540072166L445.07178342892036 523.6481823191418L406.91702267930816 523.6481823191418L406.91702267930816 515.0767540072166L419.7741651471962 515.0767540072166L427.2741649201309 382.2196151723734Z " fill="#fccd2a" transform="matrix(0.4812147665262497,0,0,0.4812147665262497,0,84.1038722004651)"/><path d="M710.9324112484167 388.93946108921523L701.041636055344 388.93946108921523L701.041636055344 383.11421925771225L735.6896890323043 383.11421925771225L764.6743124508589 479.230709477511L771.9558647402375 479.230709477511L771.9558647402375 485.05595130901395L734.3951908475258 485.05595130901395L734.3951908475258 479.230709477511L742.8296555827228 479.230709477511L737.4493975022374 461.3100002319846L697.825617127535 461.3100002319846L692.5869447860098 479.230709477511L701.041636055344 479.230709477511L701.041636055344 485.05595130901395L676.4259440104165 485.05595130901395L676.4259440104165 479.230709477511L683.7074962997953 479.230709477511L710.9324112484167 388.93946108921523ZM735.406517554384 454.7566031715437L717.4858083088575 395.20968667173577L699.8684970753885 454.7566031715437L735.406517554384 454.7566031715437ZM855.9971140801499 382.52764976773454L855.9971140801499 382.52764976773454L855.9971140801499 468.8949505334207Q855.9971140801499 472.81889815603034 857.8781817549061 475.08426997939256Q859.7794759637995 477.32941526861765 863.3393459719402 477.32941526861765Q866.919442514218 477.32941526861765 872.0165291167832 473.12229616808776L872.0165291167832 473.12229616808776L875.353907249415 476.6012600396798Q863.7034235864091 487.24041699582756 852.0529399234033 487.24041699582756L852.0529399234033 487.24041699582756Q838.2179905735836 487.24041699582756 835.0221981799118 474.27520861390605L835.0221981799118 474.27520861390605Q827.4372478784758 487.24041699582756 812.7325575607583 487.24041699582756L812.7325575607583 487.24041699582756Q795.9849872951872 487.24041699582756 787.2471245479328 476.3989946983082Q778.5092618006784 465.5373458666516 778.5092618006784 448.72909599866915Q778.5092618006784 431.9006195965495 787.9146001744591 420.97829116248147Q797.2997120141029 410.0559627284134 814.1888680186339 410.0559627284134L814.1888680186339 410.0559627284134Q827.1540764005556 410.0559627284134 834.1524572120138 420.3917216725037L834.1524572120138 420.3917216725037L834.1524572120138 380.6465820929784Q826.1427496936974 382.6692355066947 821.9154040590304 387.76632210925976L821.9154040590304 387.76632210925976L817.9712299022835 383.2558049966724Q822.1985755369506 378.8868736230452 828.6912929949799 376.2776507193512Q835.163783918872 373.64820128151996 841.4946891038041 373.64820128151996Q847.825594288736 373.64820128151996 851.9113541844431 376.19674458280247Q855.9971140801499 378.74528788408503 855.9971140801499 382.52764976773454ZM805.1678337934593 426.52036151606416Q801.0820738977523 434.67165477334083 801.0820738977523 448.6481898621205Q801.0820738977523 462.62472495090014 805.1678337934593 470.7760182081769Q809.2333671550291 478.9475379995907 817.6071522878146 478.9475379995907Q825.9809374206 478.9475379995907 830.4307749307759 470.71533860576534Q834.8806124409518 462.48313921194 834.8806124409518 448.6481898621205Q834.8806124409518 434.813240512301 830.4307749307759 426.58104111847564Q825.9809374206 418.3488417246503 817.6071522878146 418.3488417246503Q809.2333671550291 418.3488417246503 805.1678337934593 426.52036151606416ZM894.953418828326 395.7153500251648Q891.5149080250083 392.29706575598425 891.5149080250083 387.48315063133947Q891.5149080250083 382.6692355066947 894.953418828326 379.25095123751413Q898.3717030975065 375.83266696833357 903.1653916880141 375.83266696833357Q907.9793068126589 375.83266696833357 911.3975910818394 379.25095123751413Q914.8158753510202 382.6692355066947 914.8158753510202 387.48315063133947Q914.8158753510202 392.29706575598425 911.3975910818394 395.7153500251648Q907.9793068126589 399.13363429434537 903.1653916880141 399.13363429434537Q898.3717030975065 399.13363429434537 894.953418828326 395.7153500251648ZM900.4145830453599 410.0559627284134L900.4145830453599 410.0559627284134Q914.0877201220821 410.0559627284134 914.0877201220821 421.84803213037947L914.0877201220821 421.84803213037947L914.0877201220821 468.8949505334207Q914.0877201220821 472.81889815603034 915.9890143309756 475.08426997939256Q917.8903085398688 477.32941526861765 921.8142561624784 477.32941526861765Q925.7382037850882 477.32941526861765 930.8352903876532 473.12229616808776L930.8352903876532 473.12229616808776L933.4647398254845 476.6012600396798Q921.8142561624784 487.24041699582756 910.1637724994725 487.24041699582756L910.1637724994725 487.24041699582756Q892.2430632539463 487.24041699582756 892.2430632539463 465.8407438787091L892.2430632539463 465.8407438787091L892.2430632539463 417.0543435398718Q884.2333557356296 419.07699695358815 880.0262366350996 424.1740835561532L880.0262366350996 424.1740835561532L876.0820624783528 419.66356644356586Q880.30940811302 415.29463506993864 886.7818990369121 412.6854121662446Q893.2746164949415 410.0559627284134 900.4145830453599 410.0559627284134ZM948.1694301432019 420.2501359335436L936.2357750022757 420.2501359335436L936.2357750022757 414.2833083630805L948.1694301432019 414.2833083630805L948.1694301432019 393.30839246284245L970.014087011338 393.30839246284245L970.014087011338 414.2833083630805L986.4784857989887 414.2833083630805L986.4784857989887 420.2501359335436L970.014087011338 420.2501359335436L970.014087011338 468.8949505334207Q970.014087011338 472.81889815603034 971.9153812202314 475.08426997939256Q973.7964488949876 477.32941526861765 977.7406230517342 477.32941526861765Q981.6645706743438 477.32941526861765 986.7616572769091 473.12229616808776L986.7616572769091 473.12229616808776L989.3911067147401 476.6012600396798Q977.7406230517342 487.24041699582756 966.0901393887284 487.24041699582756L966.0901393887284 487.24041699582756Q948.1694301432019 487.24041699582756 948.1694301432019 465.8407438787091L948.1694301432019 465.8407438787091L948.1694301432019 420.2501359335436ZM994.1847953052479 419.66356644356586Q998.4121409399149 415.29463506993864 1004.9048583979443 412.6854121662446Q1011.3773493218364 410.0559627284134 1017.7082545067685 410.0559627284134Q1024.0391596917004 410.0559627284134 1028.1249195874075 412.604506029696Q1032.2106794831143 415.1530493309785 1032.2106794831143 418.935411214628L1032.2106794831143 418.935411214628L1032.2106794831143 463.06970870191776Q1032.2106794831143 467.7218115534652 1035.123300398866 470.12876911578763Q1038.0359213146173 472.53572667811005 1042.4048526882445 472.53572667811005L1042.4048526882445 472.53572667811005Q1051.7090583913396 472.53572667811005 1058.343361588329 464.52601915979346Q1064.9776647853184 456.51631164147693 1064.9776647853184 443.996087010573L1064.9776647853184 443.996087010573Q1064.9776647853184 436.9977061991146 1062.206629608527 429.2711701587183L1062.206629608527 429.2711701587183Q1059.577180170696 431.03087862865146 1055.5116468091262 431.03087862865146Q1051.4258869134192 431.03087862865146 1048.1491883831989 427.7541800984311Q1044.8724898529783 424.4774815682107 1044.8724898529783 419.805152182526Q1044.8724898529783 415.1530493309785 1048.1491883831989 411.8763508007581Q1051.4258869134192 408.59965227053766 1056.3813877770242 408.59965227053766Q1061.3368886406292 408.59965227053766 1064.8967586487697 412.3213345517757Q1068.4566286569104 416.0227902988765 1070.0747513878835 422.15143014243694L1070.0747513878835 422.15143014243694Q1072.6839742915777 432.7703605644475 1072.6839742915777 445.65466280982037Q1072.6839742915777 458.5591915893304 1069.7106737734146 471.50417343711473Q1066.7171467211144 484.46938181903624 1061.8425519940583 493.7938140562684Q1056.9679572670018 503.1182462935006 1050.8393174234416 509.95481483186165L1050.8393174234416 509.95481483186165Q1038.3190927925375 523.648178442721 1025.353884410616 523.648178442721L1025.353884410616 523.648178442721Q1021.8546940048868 523.648178442721 1019.6095487156617 522.1109618482967Q1017.3441768922996 520.5939717880094 1014.431555976548 516.5082118923025L1014.431555976548 516.5082118923025L1006.8668322092492 506.030867209252L1010.6491940928986 502.08669305250527Q1017.647574904357 503.2598320324607 1022.8862472458823 503.2598320324607L1022.8862472458823 503.2598320324607Q1039.1888337604357 503.2598320324607 1049.524592704526 492.9240730883704Q1059.8805781827534 482.5883141442801 1065.8474057532164 459.28734681826825L1065.8474057532164 459.28734681826825Q1056.8061449939046 484.3277960800761 1032.635436699995 484.3277960800761L1032.635436699995 484.3277960800761Q1023.3110044627626 484.3277960800761 1016.8385135388705 477.9968908951441Q1010.3660226149782 471.66598571021206 1010.3660226149782 460.0155020472061L1010.3660226149782 460.0155020472061L1010.3660226149782 417.0543435398718Q1002.3563150966618 419.07699695358815 998.1289694619948 424.1740835561532L998.1289694619948 424.1740835561532L994.1847953052479 419.66356644356586ZM1148.7155161131734 412.24042841522703L1170.5601729813095 412.24042841522703L1170.5601729813095 468.8949505334207Q1170.5601729813095 472.81889815603034 1172.4412406560657 475.08426997939256Q1174.342534864959 477.32941526861765 1178.2664824875685 477.32941526861765Q1182.2106566443153 477.32941526861765 1187.3077432468806 473.12229616808776L1187.3077432468806 473.12229616808776L1189.9169661505746 476.6012600396798Q1178.2664824875685 487.24041699582756 1166.6159988245627 487.24041699582756L1166.6159988245627 487.24041699582756Q1152.7810494747432 487.24041699582756 1149.5852570810714 474.27520861390605L1149.5852570810714 474.27520861390605Q1142.0003067796354 487.24041699582756 1127.2956164619177 487.24041699582756L1127.2956164619177 487.24041699582756Q1110.5480461963468 487.24041699582756 1101.8101834490924 476.3989946983082Q1093.072320701838 465.5373458666516 1093.072320701838 448.72909599866915Q1093.072320701838 431.9006195965495 1102.4776590756187 420.97829116248147Q1111.8627709152624 410.0559627284134 1128.7519269197935 410.0559627284134L1128.7519269197935 410.0559627284134Q1141.717135301715 410.0559627284134 1148.7155161131734 420.3917216725037L1148.7155161131734 420.3917216725037L1148.7155161131734 412.24042841522703ZM1119.730892694619 426.52036151606416Q1115.6451327989118 434.67165477334083 1115.6451327989118 448.6481898621205Q1115.6451327989118 462.62472495090014 1119.730892694619 470.7760182081769Q1123.7964260561887 478.9475379995907 1132.170211188974 478.9475379995907Q1140.5439963217596 478.9475379995907 1144.9938338319355 470.71533860576534Q1149.4436713421112 462.48313921194 1149.4436713421112 448.6481898621205Q1149.4436713421112 434.813240512301 1144.9938338319355 426.58104111847564Q1140.5439963217596 418.3488417246503 1132.170211188974 418.3488417246503Q1123.7964260561887 418.3488417246503 1119.730892694619 426.52036151606416ZM1262.5909033054013 493.7938140562684L1197.926673668891 493.7938140562684L1197.926673668891 485.05595130901395L1262.5909033054013 485.05595130901395L1262.5909033054013 493.7938140562684ZM1290.2608020050404 388.93946108921523L1280.5116125509278 388.93946108921523L1280.5116125509278 383.11421925771225L1312.6920283631541 383.11421925771225L1339.1887880828376 470.35126099129644L1364.2494638787828 383.11421925771225L1397.299620658907 383.11421925771225L1397.299620658907 388.93946108921523L1387.3886189316972 388.93946108921523L1392.6475178073597 479.230709477511L1401.3853805546141 479.230709477511L1401.3853805546141 485.05595130901395L1362.3481696698896 485.05595130901395L1362.3481696698896 479.230709477511L1370.6410486661262 479.230709477511L1366.130531553539 407.14334181266196L1343.699305195425 485.05595130901395L1321.7130625883287 485.05595130901395L1297.9873380454367 407.2849275516221L1293.9015781497296 479.230709477511L1302.3562694190637 479.230709477511L1302.3562694190637 485.05595130901395L1276.4258526552208 485.05595130901395L1276.4258526552208 479.230709477511L1285.1637154024752 479.230709477511L1290.2608020050404 388.93946108921523ZM1428.2462178887668 395.7153500251648Q1424.827933619586 392.29706575598425 1424.827933619586 387.48315063133947Q1424.827933619586 382.6692355066947 1428.2462178887668 379.25095123751413Q1431.664502157947 375.83266696833357 1436.4784172825919 375.83266696833357Q1441.2721058730995 375.83266696833357 1444.7106166764172 379.25095123751413Q1448.1289009455977 382.6692355066947 1448.1289009455977 387.48315063133947Q1448.1289009455977 392.29706575598425 1444.7106166764172 395.7153500251648Q1441.2721058730995 399.13363429434537 1436.4784172825919 399.13363429434537Q1431.664502157947 399.13363429434537 1428.2462178887668 395.7153500251648ZM1433.7073821058007 410.0559627284134L1433.7073821058007 410.0559627284134Q1447.40074571666 410.0559627284134 1447.40074571666 421.84803213037947L1447.40074571666 421.84803213037947L1447.40074571666 468.8949505334207Q1447.40074571666 472.81889815603034 1449.281813391416 475.08426997939256Q1451.1831076003095 477.32941526861765 1455.1070552229191 477.32941526861765Q1459.051229379666 477.32941526861765 1464.148315982231 473.12229616808776L1464.148315982231 473.12229616808776L1466.757538885925 476.6012600396798Q1455.1070552229191 487.24041699582756 1443.4565715599133 487.24041699582756L1443.4565715599133 487.24041699582756Q1425.5560888485238 487.24041699582756 1425.5560888485238 465.8407438787091L1425.5560888485238 465.8407438787091L1425.5560888485238 417.0543435398718Q1417.5463813302074 419.07699695358815 1413.3190356955402 424.1740835561532L1413.3190356955402 424.1740835561532L1409.3950880729305 419.66356644356586Q1413.6022071734606 415.29463506993864 1420.09492463149 412.6854121662446Q1426.567415555382 410.0559627284134 1433.7073821058007 410.0559627284134ZM1489.3303509829989 424.1740835561532L1489.3303509829989 424.1740835561532Q1485.851387111407 418.79382547566786 1485.851387111407 414.5664798410008Q1485.851387111407 410.3391342063337 1489.1280856416274 407.0624356761133Q1492.4047841718477 403.7857371458929 1497.0568870233953 403.7857371458929Q1501.7089898749427 403.7857371458929 1504.985688405163 407.0624356761133Q1508.2623869353836 410.3391342063337 1508.2623869353836 414.8698778530582Q1508.2623869353836 419.38039496564556 1503.7518698227962 424.4774815682107L1503.7518698227962 424.4774815682107Q1515.7057514978596 433.2153443154651 1522.0973362852033 441.5891294482506Q1528.5091476066837 449.9629145810361 1528.5091476066837 460.94592261751563Q1528.5091476066837 471.9491571881323 1520.216268610447 479.5947870919799Q1511.9031630800728 487.24041699582756 1496.6119032723777 487.24041699582756L1496.6119032723777 487.24041699582756Q1489.6337489950565 487.24041699582756 1482.5746885811866 484.18621034111595Q1475.4954016331794 481.13200368640435 1471.85462548849 476.6012600396798L1471.85462548849 476.6012600396798L1475.212230155259 473.12229616808776Q1481.6240414767399 478.2193827706529 1489.0471795050787 478.2193827706529Q1496.4703175334175 478.2193827706529 1501.2033265215136 474.21452901149456Q1505.9363355096098 470.2096752523363 1505.9363355096098 461.75498398300215L1505.9363355096098 461.75498398300215Q1505.9363355096098 448.3650183842002 1496.0455603165371 433.80191380544284L1496.0455603165371 433.80191380544284L1474.0390911753036 461.3100002319846L1470.3983150306144 458.1142078383128Q1481.4824557377797 440.19349859278634 1489.3303509829989 424.1740835561532ZM1570.8837366240405 382.52764976773454L1570.8837366240405 382.52764976773454L1570.8837366240405 419.9669644556233Q1575.9808232266055 414.42489410204064 1581.886971194657 412.24042841522703Q1587.7931191627085 410.0559627284134 1596.8950595244319 410.0559627284134Q1605.9969998861552 410.0559627284134 1611.7413355811095 415.80029842336774Q1617.4856712760638 421.5648606524592 1617.4856712760638 431.4556358455319L1617.4856712760638 431.4556358455319L1617.4856712760638 468.8949505334207Q1617.4856712760638 472.81889815603034 1619.3869654849573 475.08426997939256Q1621.2882596938507 477.32941526861765 1625.2122073164603 477.32941526861765Q1629.13615493907 477.32941526861765 1634.233241541635 473.12229616808776L1634.233241541635 473.12229616808776L1636.8626909794662 476.6012600396798Q1625.2122073164603 487.24041699582756 1613.5617236534542 487.24041699582756L1613.5617236534542 487.24041699582756Q1595.6410144079277 487.24041699582756 1595.6410144079277 465.8407438787091L1595.6410144079277 465.8407438787091L1595.6410144079277 428.4014291908203Q1595.6410144079277 423.89091207823293 1592.8902057652738 421.42327491349903Q1590.1191705884826 418.935411214628 1585.1636697248773 418.935411214628Q1580.2081688612725 418.935411214628 1575.5560660097249 423.02117111033493Q1570.8837366240405 427.0867044719047 1570.8837366240405 433.6401015323455L1570.8837366240405 433.6401015323455L1570.8837366240405 485.05595130901395L1549.0390797559044 485.05595130901395L1549.0390797559044 380.6465820929784Q1541.0293722375877 382.6692355066947 1536.8222531370577 387.76632210925976L1536.8222531370577 387.76632210925976L1532.8780789803109 383.2558049966724Q1537.105424614978 378.8868736230452 1543.5779155388702 376.2776507193512Q1550.0706329968996 373.64820128151996 1556.4015381818317 373.64820128151996Q1562.7324433667636 373.64820128151996 1566.8182032624704 376.19674458280247Q1570.8837366240405 378.74528788408503 1570.8837366240405 382.52764976773454ZM1691.1911616718862 410.0559627284134L1691.1911616718862 410.0559627284134Q1695.5600930455134 410.0559627284134 1695.5600930455134 418.3488417246503L1695.5600930455134 418.3488417246503L1695.5600930455134 468.8949505334207Q1695.5600930455134 472.81889815603034 1697.4411607202694 475.08426997939256Q1699.3424549291628 477.32941526861765 1703.2664025517724 477.32941526861765Q1707.210576708519 477.32941526861765 1712.307663311084 473.12229616808776L1712.307663311084 473.12229616808776L1714.916886214778 476.6012600396798Q1703.2664025517724 487.24041699582756 1691.6159188887664 487.24041699582756L1691.6159188887664 487.24041699582756Q1673.7154361773771 487.24041699582756 1673.7154361773771 465.8407438787091L1673.7154361773771 465.8407438787091L1673.7154361773771 424.90223878509113Q1666.8586411048789 427.67327396188244 1657.1094516507662 428.70482720287777L1657.1094516507662 428.70482720287777Q1655.9363126708108 442.0947928016797 1649.3829156103698 455.4847584004816L1649.3829156103698 455.4847584004816L1643.416088039907 453.74527646468556Q1647.5018479356138 443.4095175205953 1647.7850194135342 429.12958441975815L1647.7850194135342 429.12958441975815Q1642.2429490599516 429.12958441975815 1638.8246647907708 425.9337920260864Q1635.4063805215906 422.71777309827746 1635.4063805215906 417.98476411018135Q1635.4063805215906 413.25175512208517 1638.6830790518109 409.97505659186476Q1641.9597775820312 406.69835806164434 1646.6927865701273 406.69835806164434Q1651.4257955582234 406.69835806164434 1654.6215879518954 410.0559627284134Q1657.8376068797043 413.4135673951825 1657.8376068797043 418.6522397367077L1657.8376068797043 418.6522397367077L1660.6086420564957 418.6522397367077Q1672.097313446404 418.6522397367077 1685.0625218283258 412.24042841522703L1685.0625218283258 412.24042841522703Q1689.2898674629928 410.0559627284134 1691.1911616718862 410.0559627284134ZM1777.1134786865546 412.24042841522703L1798.9581355546907 412.24042841522703L1798.9581355546907 468.8949505334207Q1798.9581355546907 472.81889815603034 1800.8392032294469 475.08426997939256Q1802.7404974383403 477.32941526861765 1806.6644450609497 477.32941526861765Q1810.6086192176967 477.32941526861765 1815.7057058202618 473.12229616808776L1815.7057058202618 473.12229616808776L1818.3149287239557 476.6012600396798Q1806.6644450609497 487.24041699582756 1795.013961397944 487.24041699582756L1795.013961397944 487.24041699582756Q1781.1790120481246 487.24041699582756 1777.9832196544526 474.27520861390605L1777.9832196544526 474.27520861390605Q1770.3982693530165 487.24041699582756 1755.693579035299 487.24041699582756L1755.693579035299 487.24041699582756Q1738.946008769728 487.24041699582756 1730.2081460224736 476.3989946983082Q1721.4702832752191 465.5373458666516 1721.4702832752191 448.72909599866915Q1721.4702832752191 431.9006195965495 1730.875621649 420.97829116248147Q1740.2607334886434 410.0559627284134 1757.1498894931747 410.0559627284134L1757.1498894931747 410.0559627284134Q1770.1150978750961 410.0559627284134 1777.1134786865546 420.3917216725037L1777.1134786865546 420.3917216725037L1777.1134786865546 412.24042841522703ZM1748.1288552680003 426.52036151606416Q1744.043095372293 434.67165477334083 1744.043095372293 448.6481898621205Q1744.043095372293 462.62472495090014 1748.1288552680003 470.7760182081769Q1752.1943886295699 478.9475379995907 1760.5681737623554 478.9475379995907Q1768.9419588951405 478.9475379995907 1773.3917964053167 470.71533860576534Q1777.8416339154924 462.48313921194 1777.8416339154924 448.6481898621205Q1777.8416339154924 434.813240512301 1773.3917964053167 426.58104111847564Q1768.9419588951405 418.3488417246503 1760.5681737623554 418.3488417246503Q1752.1943886295699 418.3488417246503 1748.1288552680003 426.52036151606416Z " fill="#fccd2a" transform="matrix(0.4812147665262497,0,0,0.4812147665262497,0,84.1038722004651)"/></g></svg>